<svg id="Layer_1" data-name="Layer 1" xmlns="http://www.w3.org/2000/svg" viewBox="0 0 700 600"><title>Corporate Illustrations Pack - Scene 1</title><rect x="348.81" y="54.62" width="2.39" height="83.88" fill="#e3e3e3"/><path d="M350,170.68a15.6,15.6,0,1,1,15.6-15.6A15.61,15.61,0,0,1,350,170.68Zm0-28.81a13.22,13.22,0,1,0,13.21,13.21A13.22,13.22,0,0,0,350,141.87Z" fill="#e3e3e3"/><path d="M426.19,155.08H273.81l7.88-7.94c31.71-32,53.62-42,68.31-42h0c14.69,0,36.6,10.09,68.31,42Z" fill="#d1d1d1"/><path d="M623.15,401.84h-2c0-26.43-6.53-44.09-20-54-12.54-9.23-29.52-10.48-44.48-10.48-17.26,0-35.18-1.31-49.28-10.84C491,315.42,483,295.28,483,265c0-63.88-31.47-92.47-62.66-92.47v-2C452.48,170.49,485,199.7,485,265c0,29.6,7.72,49.21,23.59,59.93,13.65,9.23,31.21,10.5,48.16,10.5C591.21,335.39,623.15,343.44,623.15,401.84Z" fill="#90A4AE"/><path d="M583.28,348.11a9.2,9.2,0,1,1,9.2-9.2A9.2,9.2,0,0,1,583.28,348.11Zm0-16.4a7.2,7.2,0,1,0,7.2,7.2A7.21,7.21,0,0,0,583.28,331.71Z" fill="#d1d1d1"/><path d="M619.68,385.49a9.2,9.2,0,1,1,9.2-9.2A9.2,9.2,0,0,1,619.68,385.49Zm0-16.4a7.2,7.2,0,1,0,7.2,7.2A7.2,7.2,0,0,0,619.68,369.09Z" fill="#d1d1d1"/><path d="M444.69,186.81a9.2,9.2,0,1,1,9.2-9.2A9.2,9.2,0,0,1,444.69,186.81Zm0-16.4a7.2,7.2,0,1,0,7.2,7.2A7.21,7.21,0,0,0,444.69,170.41Z" fill="#d1d1d1"/><path d="M484.83,289.79a9.2,9.2,0,1,1,9.2-9.2A9.21,9.21,0,0,1,484.83,289.79Zm0-16.4a7.2,7.2,0,1,0,7.2,7.2A7.21,7.21,0,0,0,484.83,273.39Z" fill="#d1d1d1"/><rect x="88.27" y="501.67" width="129.09" height="21.86" fill="#1E88E5"/><rect x="179.68" y="508.55" width="37.68" height="8.09" fill="#fff"/><rect x="72.12" y="523.53" width="129.09" height="21.86" fill="#17212b"/><rect x="144.91" y="530.41" width="56.3" height="8.09" fill="#fff"/><path d="M128,455s-5.34-4.31-9.28-8.11c-7-6.77-9.28-16.8-9.28-16.8s19.06,2.34,25.08,12.46S140,455,140,455Z" fill="#ffffff"/><path d="M177.64,455s5.35-4.31,9.28-8.11c7-6.77,9.28-16.8,9.28-16.8s-19.06,2.34-25.07,12.46S165.61,455,165.61,455Z" fill="#ffffff"/><path d="M140,455s-5.51-5.85-5.51-20.65,1.25-18.8,1.25-18.8,13.54,11.78,15.05,22.82S152.06,455,152.06,455Z" fill="#ffffff"/><path d="M152.06,455s-1.76-9.61,2.26-22.15,12-24.07,12-24.07,7.52,22.4,4,33.77S166.6,455,166.6,455Z" fill="#ffffff"/><path d="M133,451.37c-1.86-1.76-3.72-3.39-5.55-5.07l-5.53-5c-1.82-1.68-3.69-3.32-5.51-5-.93-.84-1.83-1.7-2.73-2.58S111.86,432,111,431c1.17.52,2.28,1.13,3.4,1.74s2.17,1.31,3.22,2a59.76,59.76,0,0,1,6,4.64,45,45,0,0,1,5.32,5.46l1.18,1.51c.37.53.74,1.05,1.09,1.58A17.6,17.6,0,0,1,133,451.37Z" fill="#636363"/><path d="M145.81,446.56c-.72-2.25-1.59-4.34-2.39-6.48s-1.61-4.25-2.42-6.39c-.38-1.07-.81-2.13-1.17-3.22s-.79-2.15-1.14-3.25a67.84,67.84,0,0,1-2-6.67,41.32,41.32,0,0,1,3.8,5.89,54.32,54.32,0,0,1,2.93,6.34,39.71,39.71,0,0,1,2,6.72A19.47,19.47,0,0,1,145.81,446.56Z" fill="#636363"/><path d="M194.45,431.33l-5.14,4.05c-1.67,1.33-3.33,2.65-4.95,4-.82.66-1.58,1.4-2.41,2.08s-1.57,1.43-2.34,2.17c-1.58,1.46-3,3-4.68,4.56a23.17,23.17,0,0,1,3.21-5.85,29.82,29.82,0,0,1,4.54-4.92,29.17,29.17,0,0,1,5.49-3.82A20.62,20.62,0,0,1,194.45,431.33Z" fill="#636363"/><path d="M159.08,447.39a36.58,36.58,0,0,1,0-8.81,75.91,75.91,0,0,1,1.35-8.65c.61-2.85,1.33-5.68,2.18-8.46a70.72,70.72,0,0,1,3-8.24c-.21,2.94-.64,5.82-1.11,8.68-.22,1.43-.48,2.86-.74,4.28s-.54,2.84-.81,4.26c-.57,2.83-1.15,5.65-1.82,8.46S159.76,444.52,159.08,447.39Z" fill="#636363"/><path d="M152.82,501.67h0a36.12,36.12,0,0,1-36.12-36.12V455h72.23v10.53A36.12,36.12,0,0,1,152.82,501.67Z" fill="#17212b"/><path d="M375,351.12s-17.73,1.16-26-34.46,11.87-68.12,46.45-71.22,53.16,28.39,54.71,47.48,3.61,59.76-21.16,55.43Z" fill="#17212b"/><path d="M278.25,496.54c-5.68,7-6.19,13.67,3.61,23S306.64,534,306.64,534V499.37Z" fill="#ffbc9d"/><path d="M437.73,317.7c5.16,35.09-14.6,44.78-14.6,44.78,2.58,23.74,9.44,27.48,9.44,27.48-21.68,24.77-46.45,2.58-46.45,2.58,9.81-8.26,7.74-27.36,7.74-27.36-27.35-7.22-27.35-43.87-27.35-43.87s-3.62,6.19-10.29,0-6.23-17.55,0-17,5.64,4.64,5.64,4.64c29.42-12.38,32-37.67,32-37.67,13.42,32,42.33,31.48,42.33,31.48a6.12,6.12,0,0,1,5.41-6.19c5.68-1,7.23,23.74-2.32,21.42Z" fill="#ffbc9d"/><circle cx="392.31" cy="228.41" r="19.87" fill="#17212b"/><path d="M386.12,392.54s-19.18-4.13-39,11.35-64.22,78.45-73.51,92.9c0,0,16.52,14.46,53.17,18.58S451,518,451,518s14.14-28.91,12.59-54.71c0,0,25.29,60.9,52.65,78.45,0,0-8.78-16.52,18.58-66.58,0,0-33-31.49-48-53.16s-36.13-37.17-54.2-32C432.57,390,416.06,406.47,386.12,392.54Z" fill="#1E88E5"/><path d="M534.77,475.12c8.33-14.25,30.06-50.84,30.06-50.84s0-15.49,12.39-18.2c0,0,6.19-13.54,7.74-24.38s3.87-13.16,5-5-1.93,23.23-1.93,23.23,2.71-9.29,7.35-8.52,3.87,4.26,3.87,4.26a2.84,2.84,0,0,1,3.49-1.55c2.71.58,2.32,6.39,2.32,6.39a2.17,2.17,0,0,1,3.1-.39c1.74,1.36,1.35,2.33-1.17,10.65a97.51,97.51,0,0,0-2.82,10.45s-4.28,0-4.28-4.26c0,0-3.85,11-15.54,15.29-6.73,2.45-17.16,50.78-30.51,78.39-12.61,26.11-32.65,34.89-38.6,27.9C515.27,538.5,509.5,518.31,534.77,475.12Z" fill="#ffbc9d"/><path d="M577.22,406.08c1.5-.31,3-.59,4.49-.94s3-.69,4.46-1.08,2.93-.84,4.39-1.29,2.89-1,4.27-1.54l1-.41-.32,1a18.76,18.76,0,0,1-3,5.49,24.38,24.38,0,0,1-4.3,4.43,28.24,28.24,0,0,1-5.25,3.2l-.69.34-.72.27-1.43.54c-1,.33-2,.57-2.93.84.94-.39,1.89-.72,2.82-1.12s1.85-.82,2.71-1.34a27.57,27.57,0,0,0,5-3.38,25.77,25.77,0,0,0,4.06-4.36,20,20,0,0,0,2.8-5.17l.66.57a42.35,42.35,0,0,1-4.41,1.49c-1.47.44-3,.79-4.48,1.12s-3,.62-4.54.82S578.75,406,577.22,406.08Z" fill="#636363"/><path d="M599.28,395.63c-1,4.24-2.16,8.46-3.12,12.7-.46,2.13-1.16,4.26-.83,6.26a4.67,4.67,0,0,0,4,3.8l-.5.33c1-3.06,2-6.12,3-9.16.53-1.52,1-3.05,1.58-4.56s1.07-3,1.65-4.53c-.39,1.56-.83,3.11-1.25,4.66s-.89,3.09-1.33,4.64c-.87,3.09-1.84,6.15-2.78,9.23l-.11.38-.39-.05a6.11,6.11,0,0,1-3.21-1.46,5.31,5.31,0,0,1-1.63-3.12,9.84,9.84,0,0,1,.18-3.43c.24-1.07.5-2.13.77-3.19C596.5,403.91,597.78,399.74,599.28,395.63Z" fill="#636363"/><path d="M588.45,411a7,7,0,0,0,.55,1.65,4.34,4.34,0,0,0,1,1.34,4.75,4.75,0,0,0,1.39.9,5.7,5.7,0,0,0,1.57.41l-.42.28c.87-3.09,1.83-6.16,2.84-9.22.51-1.52,1.05-3,1.6-4.55s1.13-3,1.75-4.5c-.35,1.58-.72,3.14-1.15,4.69s-.84,3.11-1.31,4.65c-.92,3.07-1.89,6.13-3,9.17l-.12.33-.31-.05a6.26,6.26,0,0,1-1.78-.62,5.39,5.39,0,0,1-1.47-1.13,4.6,4.6,0,0,1-.91-1.59A5.32,5.32,0,0,1,588.45,411Z" fill="#636363"/><path d="M591.25,398.24A6.93,6.93,0,0,1,591,401a6.74,6.74,0,0,1-1.2,2.47,7.66,7.66,0,0,1,1.45-5.22Z" fill="#636363"/><rect x="446.16" y="533.96" width="49.9" height="11.35" fill="#d1d1d1"/><polygon points="471.28 545.31 300.44 545.31 287.02 447.76 457.86 447.76 471.28 545.31" fill="#ccc"/><ellipse cx="379.15" cy="496.54" rx="8.87" ry="10.7" transform="translate(-243.25 442.56) rotate(-47.68)" fill="#d1d1d1"/><polygon points="292.33 395.98 251.43 395.98 251.43 424.39 265.66 424.39 271.88 435.16 278.1 424.39 292.33 424.39 292.33 395.98" fill="#d1d1d1"/><polygon points="183.46 238.4 142.56 238.4 142.56 266.81 156.79 266.81 163.01 277.58 169.23 266.81 183.46 266.81 183.46 238.4" fill="#E0E0E0"/><polygon points="285.74 236.65 244.84 236.65 244.84 265.06 259.07 265.06 265.29 275.84 271.51 265.06 285.74 265.06 285.74 236.65" fill="#ccc"/><polygon points="238.93 331.53 198.03 331.53 198.03 359.94 212.25 359.94 218.48 370.72 224.7 359.94 238.93 359.94 238.93 331.53" fill="#ccc"/></svg>